<?xml version="1.0" encoding="UTF-8" standalone="no"?>
<svg
   xmlns:dc="http://purl.org/dc/elements/1.1/"
   xmlns:cc="http://creativecommons.org/ns#"
   xmlns:rdf="http://www.w3.org/1999/02/22-rdf-syntax-ns#"
   xmlns:svg="http://www.w3.org/2000/svg"
   xmlns="http://www.w3.org/2000/svg"
   xmlns:sodipodi="http://sodipodi.sourceforge.net/DTD/sodipodi-0.dtd"
   xmlns:inkscape="http://www.inkscape.org/namespaces/inkscape"
   width="707.09735"
   height="80.532242"
   version="1.1"
   id="svg10"
   sodipodi:docname="join_recommenders_slack.svg"
   inkscape:version="1.0.2-2 (e86c870879, 2021-01-15)">
  <metadata
     id="metadata16">
    <rdf:RDF>
      <cc:Work
         rdf:about="">
        <dc:format>image/svg+xml</dc:format>
        <dc:type
           rdf:resource="http://purl.org/dc/dcmitype/StillImage" />
        <dc:title></dc:title>
      </cc:Work>
    </rdf:RDF>
  </metadata>
  <defs
     id="defs14">
    <rect
       x="169.53444"
       y="30.769596"
       width="668.48456"
       height="127.30166"
       id="rect843" />
  </defs>
  <sodipodi:namedview
     pagecolor="#ffffff"
     bordercolor="#666666"
     borderopacity="1"
     objecttolerance="10"
     gridtolerance="10"
     guidetolerance="10"
     inkscape:pageopacity="0"
     inkscape:pageshadow="2"
     inkscape:window-width="1920"
     inkscape:window-height="1009"
     id="namedview12"
     showgrid="false"
     inkscape:zoom="1.6574803"
     inkscape:cx="308.91743"
     inkscape:cy="56.891605"
     inkscape:window-x="-8"
     inkscape:window-y="-8"
     inkscape:window-maximized="1"
     inkscape:current-layer="svg10"
     inkscape:document-rotation="0"
     fit-margin-top="0"
     fit-margin-left="0"
     fit-margin-right="0"
     fit-margin-bottom="0" />
  <rect
     style="opacity:0.997633;fill:#dc4964;fill-opacity:1;stroke-width:1.14952;stop-color:#000000"
     id="rect833"
     width="707.09735"
     height="80.532242"
     x="0"
     y="0"
     ry="12.475834" />
  <g
     id="g839"
     transform="matrix(0.41443356,0,0,0.41443356,9.1581151,13.991033)"
     style="fill:#ffffff">
    <path
       d="M 27.2,80 C 27.2,87.3 21.3,93.2 14,93.2 6.7,93.2 0.8,87.3 0.8,80 0.8,72.7 6.7,66.8 14,66.8 h 13.2 z m 6.6,0 c 0,-7.3 5.9,-13.2 13.2,-13.2 7.3,0 13.2,5.9 13.2,13.2 v 33 c 0,7.3 -5.9,13.2 -13.2,13.2 -7.3,0 -13.2,-5.9 -13.2,-13.2 z"
       fill="#e01e5a"
       id="path2"
       style="opacity:0.997633;fill:#ffffff" />
    <path
       d="M 47,27 C 39.7,27 33.8,21.1 33.8,13.8 33.8,6.5 39.7,0.6 47,0.6 c 7.3,0 13.2,5.9 13.2,13.2 V 27 Z m 0,6.7 c 7.3,0 13.2,5.9 13.2,13.2 0,7.3 -5.9,13.2 -13.2,13.2 H 13.9 C 6.6,60.1 0.7,54.2 0.7,46.9 0.7,39.6 6.6,33.7 13.9,33.7 Z"
       fill="#36c5f0"
       id="path4"
       style="opacity:0.997633;fill:#ffffff" />
    <path
       d="m 99.9,46.9 c 0,-7.3 5.9,-13.2 13.2,-13.2 7.3,0 13.2,5.9 13.2,13.2 0,7.3 -5.9,13.2 -13.2,13.2 H 99.9 Z m -6.6,0 c 0,7.3 -5.9,13.2 -13.2,13.2 -7.3,0 -13.2,-5.9 -13.2,-13.2 V 13.8 c 0,-7.3 5.9,-13.2 13.2,-13.2 7.3,0 13.2,5.9 13.2,13.2 z"
       fill="#2eb67d"
       id="path6"
       style="opacity:0.997633;fill:#ffffff" />
    <path
       d="m 80.1,99.8 c 7.3,0 13.2,5.9 13.2,13.2 0,7.3 -5.9,13.2 -13.2,13.2 -7.3,0 -13.2,-5.9 -13.2,-13.2 V 99.8 Z m 0,-6.6 c -7.3,0 -13.2,-5.9 -13.2,-13.2 0,-7.3 5.9,-13.2 13.2,-13.2 h 33.1 c 7.3,0 13.2,5.9 13.2,13.2 0,7.3 -5.9,13.2 -13.2,13.2 z"
       fill="#ecb22e"
       id="path8"
       style="opacity:0.997633;fill:#ffffff" />
  </g>
  <text
     xml:space="preserve"
     id="text841"
     style="font-size:46.6667px;line-height:1.25;font-family:Ethnocentric;-inkscape-font-specification:Ethnocentric;white-space:pre;shape-inside:url(#rect843);fill:#ffffff;"
     transform="translate(-98.040378,-17.715177)"><tspan
       x="169.53516"
       y="74.649604"><tspan
         style="font-style:normal;font-variant:normal;font-weight:normal;font-stretch:normal;font-size:46.6667px;font-family:Helvetica;-inkscape-font-specification:Helvetica;fill:#ffffff">Join #recommenders on Slack</tspan></tspan></text>
</svg>
